<?xml version="1.0" encoding="UTF-8"?>
<!DOCTYPE svg PUBLIC "-//W3C//DTD SVG 1.1//EN" "http://www.w3.org/Graphics/SVG/1.1/DTD/svg11.dtd">
<!-- Creator: CorelDRAW 2017 -->
<svg xmlns="http://www.w3.org/2000/svg" xml:space="preserve" width="179.179mm" height="178.466mm" version="1.1" style="shape-rendering:geometricPrecision; text-rendering:geometricPrecision; image-rendering:optimizeQuality; fill-rule:evenodd; clip-rule:evenodd"
viewBox="0 0 17917.84 17846.62"
 xmlns:xlink="http://www.w3.org/1999/xlink">
 <defs>
  <style type="text/css">
   <![CDATA[
    .fil0 {fill:black}
    .fil1 {fill:black;fill-rule:nonzero}
   ]]>
  </style>
 </defs>
 <g id="Capa_x0020_1">
  <metadata id="CorelCorpID_0Corel-Layer"/>
  <path class="fil0" d="M7451.78 4349.16l265.17 345.38c254.53,348.72 483.96,808.1 551.2,1253.73 99.36,658.44 -76.14,1584.41 -280.56,2099.45 -211.8,533.62 -629.94,1049.32 -1199.45,1217.6 -610.18,180.32 -1153.38,44.42 -1628.28,-333.52 -56.04,-44.59 -107.2,-104.24 -169.1,-143.02l198.43 1535.25c489.86,188.66 1223.73,226.63 1782.46,88.39 1072.38,-265.31 1589.47,-1193.55 1862.15,-2189.37 77.19,-281.82 112.34,-544.57 158.66,-849.69 24.68,-162.57 40.82,-883.27 69.09,-944.76 77.05,403.02 139.47,1101.39 199.64,1536.07 27.98,732.51 -34.54,1064.74 -39.02,1667.2l555.25 -22.85 282.7 -947.94c151.3,-488.98 898.28,-2424.81 1067.43,-2598.51 4.64,282.49 -26.05,581.68 -31.02,876.38 -8.77,518.87 -24.55,2427.33 79.91,2716.85l639.03 112.99c124.18,20.14 643.97,75.03 733.93,13.96 22.35,-23.44 -44.21,-528.45 -48.14,-562.93 -22.73,-199.85 -29.66,-415.64 -52.21,-611.17 -82.78,-718.13 -50.16,-2435.56 33.67,-3187.58 85,-762.15 137.96,-501.83 -293.85,-842.32 -301.07,-237.41 -561.52,-501.5 -840.81,-754.72 -8.36,-7.59 -24.06,-23.6 -36.18,-31.81 -33.47,-22.67 -13.84,-18.96 -59.71,-25.54 -36.77,85.64 -96.5,399.12 -124.66,509.08 -85.5,334.03 -188.83,649.04 -327.02,960.96l-148.75 333.22c-20.24,44.37 -29.62,79.85 -68.46,100.66l-651.65 -3748.75c-52.6,8.23 -92.76,66.17 -156.21,127.44l-1082.21 1078.68c-246.69,254.43 -871.68,913.4 -1159.7,1138.49 -18.01,14.06 -21.94,14.6 -38.33,29.98l-43.4 52.72z"/>
  <path class="fil0" d="M2411.18 4582.07c-11.08,43.34 305.04,979.77 344.87,1111.32 270.25,892.35 397.47,1483.91 589.56,2390.25l104.82 630.95 -331.54 83.23c-18.47,4.64 -172.35,-841.51 -233.58,-1421.12 -48.52,5.45 -864.26,509.53 -1023.27,599.2 -740.25,417.54 -937.52,582.34 -1862.04,937.93 25.12,216.09 63.66,421.55 103.17,629.47 24.63,129.62 70.56,563.09 123.68,622.35l1597.67 -1189.34c113.93,248.21 227.95,1235.45 249.04,1598.07 35.92,617.7 35.56,1212.34 27.09,1847.4 93.1,-27.59 223.84,-123.67 312.52,-173.41 401.7,-225.33 556.12,-262.35 965.46,-439.99l-188.16 -1608.97c66.52,-32.95 282.49,-75.23 376.07,-88.64 36.51,259.59 49.52,1321.25 48.45,1632.51 211.43,-16.75 434.22,-16.87 638.99,11.85 92.99,13.05 188.07,26.02 290.37,43.5 88.98,15.24 162.06,47.27 255.14,63.97 -1.79,-152.26 -83.38,-685.37 -98.21,-910.18 -20.38,-309.29 -59.28,-614.23 -81.99,-926.3 -80.43,-1104.86 -182.2,-2823.19 -125.53,-3910.36 31.04,-595.51 172.05,-1206.3 303.84,-1730.7l-1156.3 122.54c-173.85,13.21 -1153.96,43.86 -1230.12,74.47z"/>
  <path class="fil0" d="M12748.02 10664.84c297.75,5.79 597.96,39 905.29,50.04 780.65,28.04 2014.89,129.26 2723.8,-3.57l167.51 -1082.73c-233.58,33.15 -457.03,165.73 -1037.45,216.95 -332.96,29.4 -866.96,23.81 -1206.01,-7.38 0.46,-122 -12.81,-609.83 22.12,-679.85 44.76,-57.92 636.68,59.44 756.91,76.62 123.12,17.61 691.7,96.4 780.65,87.69l47.08 -774.51c-80.33,-9.38 -1457.48,-152.01 -1522.42,-181.59 -52.6,-23.95 20.61,-666.83 22.85,-708.49 159.96,2.35 854.62,334.04 1012.07,412.36 977.38,486.21 1629.25,1189.89 2312.29,2003.79 23.92,-62.75 191.62,-1345.33 184.93,-1437.27l-691.72 -330.69c-236.56,-120.26 -450.07,-234.88 -683.77,-363.41 -657.63,-361.7 -1644.37,-946.86 -2238.24,-1413.3l-302.32 -230.74c-89.71,-65.1 -190.43,-149.97 -287.09,-227.56 -209.43,-168.15 -619.64,-458.88 -788.43,-651.21 -148.37,-169.01 2.98,1115.17 7.09,1244.55 33.37,1048.55 5,1660.59 -73.14,2692.53 -32.48,428.67 -99.9,883.07 -112,1307.77z"/>
  <path class="fil0" d="M6521.02 5943.12c208.04,-55.19 345.89,160.64 386.25,314.22 111.21,423.34 -15.18,1712.34 -543.69,1629.23 -606.39,-95.35 -533.11,-1760.26 157.44,-1943.45zm138.71 -1063.63c-1009.25,141.12 -1609.89,781 -1890.07,1718.56 -193.28,646.75 -52.37,1645.1 535.38,2034.79 573.17,380.04 1522.62,135.6 1999.53,-358.95 289.12,-299.82 488.15,-683.06 601.81,-1204.58 229.86,-1054.67 -69.75,-2354.37 -1246.65,-2189.82z"/>
  <path class="fil0" d="M7527.37 15369.6c320.48,-83.57 533.24,277.63 512.71,693.41 -16.73,339.24 -118.78,741.61 -428.75,786.93 -555.21,81.21 -772.93,-1300.63 -83.96,-1480.34zm1709.18 865.22c122.99,-967.69 -533.33,-1796.32 -1654.7,-1793.38 -1061.68,2.8 -1720.52,654.06 -1886.51,1584.72 -188.75,1058.22 681.78,1778.57 1646.29,1783.74 1063.3,5.71 1762.06,-529.89 1894.92,-1575.08z"/>
  <path class="fil0" d="M12940.94 15504.21l56 -533.65c-190.43,71.98 -393.5,128.63 -598.41,182.83 -799.17,211.43 -570.27,-19.55 -708,405.71l-244.46 596.61c-21.27,47.24 -38.94,68.29 -45.42,86.67 -27.19,-135.44 -35.46,-326.23 -52.15,-463.9 -57.58,-474.56 0.73,-462.56 -186.15,-478.89 -391.09,-34.18 -503.9,-74.18 -888.29,-162.84 -230.69,-53.2 -821.38,-243.36 -946.24,-260.42 41.88,508.71 125.59,754.61 151.24,1393.44 21.09,525.88 -120.57,1328.25 -115.81,1406.82 155.91,-4.56 309.42,-7.82 465.38,-1.52 132.5,5.35 301.33,30.27 416.21,22.18l-80.15 -802.79c-20.4,-242.82 -40.24,-640.55 -25.53,-879.5 190.55,247.74 324.94,1269.08 393.32,1404.79 49.73,98.7 736.4,51.56 891.19,49.49 48.11,-56.65 186.49,-446.27 224.01,-547.96l224.06 -552.8c10.05,174.48 -9.09,567.61 -29.33,753.42 -10.94,100.57 -29.28,215.12 -45.73,330.28 -14.73,103.31 -53.79,196.59 -61.19,301.37 227.65,4.89 463.38,-31.14 714.24,-9.21 217.49,19 469.8,27.96 695.7,40.86 -10.07,-106.22 -49.03,-247.46 -74.32,-352.79 -73.16,-304.62 -154.06,-736.93 -167.91,-1042.72 -6.29,-138.19 -4.48,-274.02 1.74,-412.19 6.24,-138.16 16.85,-342.36 36,-473.29z"/>
  <path class="fil0" d="M15162.69 14550.76c-212.03,8.49 -437.28,33.98 -651.82,25.27 -410.72,-5.31 -814.06,-49.23 -1214.44,-51.6 34.81,377.34 101.26,762.01 109.85,1144.74 17.12,761.04 1.56,1336.5 -11.97,2096.28 462.03,-0.53 916.21,-7.68 1373.79,8.69 149.76,5.35 1247.46,78.35 1267.32,72.09 18.05,-25.33 6.79,5.53 13.78,-36.59l-119.48 -845.65c-12.82,-107.06 -8,-219.14 -22.87,-324.41 -125.7,85.4 -173.98,230.4 -596.75,379.8 -183.64,64.9 -628.15,125.92 -856.14,124.72l1.8 -490.38 770.6 69.42 1.65 -776.93c-6.37,-35.03 -2.46,-20.24 -13.74,-38.94 -89.79,-38.45 -596.73,36.27 -760.47,28.65l-0.63 -464.55c261.26,-14.65 791.12,73.83 1060.63,153.11 100.41,29.54 220.83,72.67 325.5,88.33 -37.06,-425.46 -45.02,-754.63 -34.38,-1198.53 -202.4,-9.18 -435.11,28.2 -642.23,36.48z"/>
  <path class="fil0" d="M5728.99 17704.99c-3.67,-82.11 -65.42,-223.63 -92.06,-312.13 -97.36,-323.52 -170.94,-646.12 -209.01,-989.88 -51.02,-460.68 15.68,-1100.74 63.72,-1543.93 -78.45,16.08 -249.02,123.06 -336.57,166.74 -275.37,137.4 -409.21,197.49 -705.64,289.31 -100.76,31.23 -390.52,79.81 -392.95,117.82 -0.14,2.37 -1.52,8.85 -1.56,11.81l139.8 753.28c-8.19,48.32 9.23,3.28 -13.88,32.72 -54.36,31.85 -510.99,71.38 -600.72,62.56 -21.4,-142.51 -26.3,-514.02 -47.96,-711.17 -8.43,-76.79 1.2,-90.1 -79.46,-95.15l-1173.96 10.82c3.08,182.22 145.35,537.47 146.26,1097.22 0.83,512.89 -85.6,753.95 -119.62,1144.12 494.35,-15.44 966.64,-36.79 1481.27,-32.32l-124.8 -819.08 528.65 -23.28c5.31,128.59 -4.19,317.18 -17.28,446.19 -10.86,106.94 -41.43,284.18 -34.24,392.73 108.9,-13.39 251.35,-44.09 367.62,-63.46 347.24,-57.86 886.72,34.67 1222.39,65.08z"/>
  <path class="fil0" d="M3147.87 14250.81c-188.1,-98.14 -889.37,-103 -1063.25,14.67 47.96,130.98 137.02,252.1 212.74,341.79 80.71,95.63 290.35,259.35 413.21,305.69 337.86,127.5 537.44,120.61 909.38,92.2 620.57,-47.41 1391.84,-285.55 1597.06,-740.78 356.95,-791.91 -838.21,-789.05 -1306.32,-909.4 -159.47,-40.99 -308.08,-84.57 -404.95,-178.9 -110.03,-107.16 -139.49,-298.41 -23.86,-423.58 190.77,-206.53 732.24,-116.7 455.06,339.79 115.28,30.34 298.26,30.69 424.27,52.23 148.45,25.38 240.41,47.24 382.78,79.13 11.33,-145.81 204.39,-520.44 -152.54,-773.74 -497.53,-353.1 -1946.95,-264.54 -2214.55,554.49 -160,489.73 244.03,697.23 609.45,862.32 55.92,25.26 122.37,54.13 178.88,78.52 195,87.99 348.43,126.94 519.21,269.2 127.38,106.13 77.9,576.67 -472.78,407.36 -215.99,-66.4 -65.96,-346.17 -63.79,-370.99z"/>
  <path class="fil0" d="M14011.13 12348.05c37.64,-195.84 309.17,-441.09 531.05,-475.35 343.6,-53.08 585.39,100.84 599.18,407.36 -429.63,-6.16 -735.24,39.67 -1130.23,67.99zm2162.3 815.89c-77.65,-29.15 -536.38,-65.23 -657.85,-72.27 -226.57,-13.15 -170.6,127.3 -524.07,202.28 -517.26,109.7 -948.37,-206.94 -967.16,-424.81 292.2,-101.45 1406.08,-117.62 1763.75,-138.47 118.32,-6.9 366.38,36.83 401.58,-69.41 114,-344.21 -101.02,-802.26 -367.66,-1027.33 -757.24,-639.22 -2916.81,-674.24 -3369.19,530.03 -95.46,254.14 -138.88,526.1 -21.12,799.43 453.85,1053.35 1644.55,1230.88 2675.09,1012.96 345.58,-73.05 708.15,-248.17 914.29,-511.94 49.63,-63.55 170.19,-231.81 152.34,-300.47z"/>
  <path class="fil0" d="M2740.13 1933.09c0,-204.73 62.91,-374.41 160.14,-526.82 113.35,-177.67 331.45,-330.17 534.72,-383.91 220.15,-58.2 457.51,-39.41 657.83,61.28 103.91,52.23 151.95,86.1 230.99,160.43l25.15 22.78c1.16,1.16 2.8,2.86 3.94,4.05 1.13,1.19 2.7,2.96 3.82,4.17 266.24,287.88 352.22,682.35 186.08,1038.83 -96.96,208.04 -255.58,378.22 -468.77,473.82 -318.29,142.73 -728.69,102.78 -988.36,-129.77 -189.3,-169.52 -345.54,-392.19 -345.54,-724.86zm949.73 2156.76l-14.43 0c-24.59,-2.59 -52.18,-18.23 -104.19,-48.29 -224.06,-129.52 -243.09,-150.09 -439.65,-303.23 -76.26,-59.43 -105.74,-100.01 -156.44,-139.12l-144.8 -150.76c-24.44,-29.19 -43.27,-55.34 -68.32,-83.45l-127.33 -168.22c-52.11,-76.48 -127.24,-188.45 -168.85,-270.49 -78.28,-154.34 -127.01,-242.9 -191.43,-407.67 -55.58,-142.19 -102.96,-294.59 -141.39,-449.72 -76.41,-308.43 -127.8,-670.81 -127.8,-1054.43 0,-60.32 3.38,-108.11 7.89,-167.84 5.05,-66.78 100.68,-94.24 194.38,-141.12l564.58 -274.16c37.71,-18.92 74.78,-33.14 114.55,-53.19l223.51 -111.99c81.53,-40.79 538.65,-266.17 572.57,-266.17 44.01,0 187.71,84.39 238.52,104.96l339.34 163.91c40.38,20.35 71.34,35.76 111.77,55.98l681.63 332.84c39.96,20.08 76.97,34.24 114.54,53.21 122.22,61.71 182.96,67.62 184.01,151.48 0.77,60.32 7.67,94.5 7.67,160.08 0,385.01 -53.29,746.73 -130.96,1059.26 -19.68,79.19 -40.61,154.96 -65.72,229.83 -96.98,289.11 -129.89,355.36 -266.58,620.08 -67.14,130.04 -155.23,242.95 -233.23,357.89l-132.32 163.22c-25.24,28.64 -51.54,47.32 -75.02,76.76 -48.11,60.31 -84.39,82.68 -148.47,147.09l-244.96 194.38c-112.6,77.7 -151.04,105.29 -273.83,173.49 -49.03,27.24 -74.76,42.83 -99.24,45.39z"/>
  <path class="fil0" d="M3514.96 2036.93c-18.89,-28.21 -163.78,-173.17 -192.96,-190.45 -133.27,-78.91 -277.47,71.05 -198.55,198.55l261.71 265.5c151.62,151.88 212.27,63.3 351.47,-75.89 64.52,-64.53 123.19,-123.19 187.72,-187.72 63.19,-63.19 120.53,-120.53 183.72,-183.72 60.85,-60.85 259.57,-214.16 95.43,-339.07 -123.92,-94.31 -249.56,77.83 -327.08,155.34 -54.19,54.19 -326.76,334.24 -361.46,357.46z"/>
  <path class="fil0" d="M11098.41 10355c-516.28,0 -954.67,-68.61 -1475.22,-68.61 67.41,289.36 137.23,1602.47 137.23,1886.89 -5.72,829.09 -11.43,1758.67 -137.75,2554.28 441.43,-53.61 990.1,-26.83 1398.02,40.19 -67.02,-297.2 -76.67,-600.78 -76.67,-879.09l0 -720.46c203.21,0 576.49,85.76 857.68,85.76 0,-225.64 22.27,-945.79 -17.14,-1114.98 -336.78,0 -632.77,51.46 -840.54,51.46l-17.14 -617.54c428.18,0 846.05,83.98 1224.54,216.38 122.17,42.73 203.71,78.63 336.44,109.55l0 -4.42c-0.41,-91.61 -13.17,-107.09 -17.22,-184.2l-33.35 -807.19c-14.61,-176.73 16.27,-457.38 16.27,-633.79 -444.01,0 -879.12,85.77 -1355.15,85.77z"/>
  <path class="fil1" d="M9467.94 14721.3c-390.56,-170.01 -738.18,-275.4 -1312.71,-415.77 -11.23,-54.19 -29.06,-89.73 -40.19,-125.87 -49.56,-160.67 -99.13,-321.35 -148.7,-482.02 -338.49,-23.46 -662.73,-26.8 -1004.8,0l-156.75 482.02c-21.94,67.54 -34.84,61.87 -40.18,105.61 -479.22,80.01 -708.08,162.29 -1241.5,403.61 441.51,-1325.01 899.81,-2375.3 1126.86,-3753.91 385.84,34.62 1033.03,-393.11 1415.53,-428.85 366.95,1388.31 914.86,2880.47 1402.44,4215.18zm-1674.42 -1636.9c-92.04,-338.3 -191.2,-646.44 -329.59,-954.6 -163.23,353.82 -232.18,542.59 -337.61,954.6 283.17,35.8 373.05,29.22 667.2,0z"/>
 </g>
</svg>
